<?xml version="1.0" standalone="no"?>
<!DOCTYPE svg PUBLIC "-//W3C//DTD SVG 20010904//EN"
 "http://www.w3.org/TR/2001/REC-SVG-20010904/DTD/svg10.dtd">
<svg version="1.0" xmlns="http://www.w3.org/2000/svg"
 width="500.000000pt" height="363.000000pt" viewBox="0 0 500.000000 363.000000"
 preserveAspectRatio="xMidYMid meet">

<g transform="translate(0.000000,363.000000) scale(0.100000,-0.100000)"
fill="#000000" stroke="none">
<path d="M364 3059 c-159 -276 -290 -506 -291 -513 -2 -6 214 -136 480 -288
l482 -277 -2 -163 c-2 -143 -4 -164 -20 -176 -10 -7 -226 -133 -481 -280 -349
-202 -461 -270 -457 -282 5 -13 515 -899 565 -982 l16 -27 460 265 c252 146
471 272 485 279 23 13 29 11 70 -16 452 -305 1049 -335 1529 -77 41 23 96 56
123 75 l47 35 487 -281 c268 -154 487 -280 488 -278 1 1 134 231 295 510 179
310 289 511 283 515 -6 4 -224 130 -485 280 l-473 274 1 165 2 166 472 272
c259 150 475 276 481 282 6 6 -96 191 -282 514 -160 277 -292 505 -294 507 -3
3 -890 -505 -950 -544 -18 -12 -27 -9 -80 27 -153 103 -373 191 -561 225 -134
24 -374 24 -509 0 -184 -33 -405 -120 -550 -218 -33 -22 -64 -41 -70 -41 -5 0
-225 125 -488 277 -262 152 -479 276 -480 276 -2 0 -133 -226 -293 -501z m423
355 l94 -55 -24 -42 c-14 -23 -131 -226 -261 -451 -130 -226 -238 -412 -241
-414 -5 -5 -183 96 -191 109 -6 11 506 908 519 909 5 0 52 -25 104 -56z m3660
-160 c67 -115 122 -213 122 -219 1 -9 -158 -106 -185 -113 -10 -3 -248 394
-256 427 -3 14 168 122 187 117 6 -1 65 -97 132 -212z m-3349 -20 c3 -2 -513
-902 -523 -912 -5 -5 -195 110 -195 118 0 4 38 72 83 151 46 79 164 282 261
451 l177 307 97 -56 c53 -31 98 -58 100 -59z m3260 -335 c139 -240 254 -443
257 -451 8 -21 -185 -134 -197 -116 -67 105 -519 903 -512 905 5 2 50 28 99
57 50 29 93 51 96 47 3 -3 119 -202 257 -442z m-1908 307 c0 -45 -9 -56 -37
-45 -35 13 -89 11 -101 -4 -17 -21 4 -83 36 -105 15 -11 46 -23 70 -27 44 -7
48 -15 35 -64 -5 -21 -10 -23 -45 -18 -82 11 -118 57 -126 157 -4 66 -3 70 19
79 13 5 38 19 54 30 17 12 45 21 63 21 27 0 32 -4 32 -24z m-1175 -74 c22 -14
41 -26 43 -27 1 -1 -112 -201 -252 -444 -141 -243 -259 -448 -263 -456 -6 -11
-29 -2 -106 43 -53 31 -97 60 -97 64 0 5 261 461 482 841 l39 68 57 -32 c31
-18 75 -44 97 -57z m1392 64 c25 -22 28 -31 28 -83 0 -48 -5 -67 -28 -102 -15
-23 -25 -46 -22 -52 4 -5 -9 -16 -27 -23 -41 -18 -52 -10 -84 59 -31 65 -32
137 -3 184 15 24 23 31 29 22 6 -10 13 -10 36 3 38 20 38 20 71 -8z m1332
-186 c67 -115 124 -216 127 -223 3 -10 -27 -33 -92 -71 -53 -31 -98 -55 -100
-53 -15 15 -254 440 -250 444 5 5 188 112 193 113 1 0 56 -94 122 -210z
m-1140 153 c20 -14 38 -28 40 -29 2 -2 -13 -22 -32 -45 -30 -35 -67 -112 -67
-141 0 -4 13 -8 29 -8 15 0 43 -5 60 -11 l32 -11 -26 -28 -27 -28 -34 20 c-18
11 -38 17 -43 14 -5 -3 -11 0 -14 8 -3 7 -20 17 -39 21 l-33 7 33 11 c31 9 33
13 28 42 -10 52 29 205 52 205 3 0 21 -12 41 -27z m-676 -12 c9 -16 17 -32 17
-35 0 -3 -20 -6 -44 -6 -34 0 -52 -6 -73 -25 l-28 -25 43 6 c48 7 119 -15 147
-46 52 -58 -58 -159 -150 -136 -22 6 -25 12 -25 52 0 43 1 44 21 32 54 -33 65
-38 87 -38 29 0 28 21 -3 59 -30 35 -82 55 -119 45 -20 -5 -26 -2 -26 9 0 31
22 71 56 104 44 41 74 43 97 4z m-250 -89 c29 -25 20 -32 -47 -32 -36 0 -67
-3 -69 -7 -6 -10 23 -83 33 -83 4 0 24 11 45 25 20 15 38 25 40 23 8 -10 26
-50 23 -53 -2 -2 -18 -7 -37 -12 -46 -12 -48 -24 -10 -52 l31 -23 33 32 32 31
7 -27 c8 -29 -21 -69 -59 -84 -37 -14 -86 -22 -83 -13 6 16 -62 123 -78 123
-13 0 -14 3 -5 14 15 18 3 79 -15 72 -10 -4 -11 0 -3 17 11 25 116 80 133 70
6 -3 19 -13 29 -21z m1244 -26 c23 -22 25 -29 20 -70 -8 -53 -36 -114 -79
-168 -31 -40 -56 -52 -38 -19 17 33 12 51 -14 51 -17 0 -26 7 -30 25 -8 31
-26 24 -26 -10 0 -36 -16 -38 -52 -6 l-32 29 28 42 c22 33 25 44 15 56 -6 8
-9 17 -5 21 3 3 6 1 6 -5 0 -7 5 -12 10 -12 12 0 124 72 128 83 7 15 44 6 69
-17z m1542 -253 c67 -117 120 -217 117 -222 -11 -17 -189 -112 -196 -104 -25
28 -252 437 -244 440 5 2 50 28 99 57 50 29 93 51 96 47 3 -3 61 -102 128
-218z m-2045 42 c387 -68 708 -357 812 -733 19 -67 16 -77 -14 -68 -14 5 -24
26 -37 74 -10 37 -39 108 -64 157 -132 258 -360 439 -641 511 -106 27 -365 27
-465 0 -172 -46 -314 -126 -441 -249 -138 -132 -217 -268 -280 -484 -5 -18
-44 -16 -44 1 0 34 55 187 92 256 212 397 645 611 1082 535z m1603 -294 c67
-118 123 -217 123 -220 0 -4 -35 -27 -77 -51 -43 -24 -87 -49 -98 -57 -20 -12
-27 -1 -145 204 -69 120 -125 221 -125 226 0 11 177 117 189 114 5 -2 65 -99
133 -216z m-1447 -291 c90 -17 150 -52 240 -138 80 -77 84 -83 66 -97 -20 -15
-53 -5 -69 21 -9 15 -53 19 -61 5 -3 -4 -40 -14 -82 -21 -68 -12 -79 -11 -105
4 -36 21 -109 13 -135 -15 -16 -17 -15 -59 3 -105 3 -8 -1 -14 -10 -14 -12 0
-18 15 -23 61 -11 102 -55 129 -91 55 l-16 -35 -47 24 c-65 33 -74 46 -60 89
20 63 65 112 131 145 52 26 74 31 134 31 40 0 96 -5 125 -10z m-770 -260 c21
0 50 -4 65 -10 25 -10 25 -10 10 -41 -10 -18 -22 -29 -30 -25 -8 3 -33 10 -56
16 -50 14 -64 4 -54 -39 6 -29 9 -31 55 -31 44 0 49 -2 59 -30 l10 -30 -60 0
c-32 0 -59 -4 -59 -9 0 -5 7 -28 15 -51 19 -55 19 -68 -2 -74 -10 -2 -27 -7
-39 -10 -28 -8 -44 28 -51 116 -3 38 -10 71 -14 74 -14 8 -10 24 5 24 26 0 37
73 14 84 -10 5 -10 7 0 12 7 3 25 16 40 29 22 19 28 20 40 9 7 -8 31 -14 52
-14z m1015 -2 c15 -2 21 -12 23 -42 l3 -38 -54 6 -54 7 -6 -46 c-6 -39 9 -142
29 -207 5 -15 -1 -18 -39 -18 -44 0 -44 0 -57 45 -15 55 -7 152 16 197 20 38
9 47 -56 48 l-45 1 22 18 c13 11 54 24 93 31 38 6 73 16 76 21 3 6 11 4 17 -5
7 -8 21 -16 32 -18z m-1770 -10 c10 -2 22 -14 26 -28 6 -21 7 -22 8 -4 1 11 7
29 15 39 12 17 14 11 21 -50 10 -94 10 -95 61 -95 l44 0 0 39 c0 22 -5 52 -10
67 -13 34 -6 41 45 46 l40 3 8 -124 c6 -108 5 -126 -8 -134 -9 -4 -27 -26 -40
-48 -14 -21 -29 -39 -34 -39 -6 0 -7 24 -4 54 l6 54 -42 13 c-23 7 -43 10 -46
8 -2 -3 0 -22 5 -44 17 -72 14 -82 -27 -88 -21 -4 -41 -3 -45 1 -11 11 -27
165 -18 177 4 6 11 25 15 43 5 27 4 32 -12 32 -10 0 -34 3 -54 6 l-36 6 -6
-46 c-6 -40 9 -143 29 -208 5 -15 -1 -18 -39 -18 -44 0 -44 0 -57 45 -15 55
-7 152 16 197 20 38 9 47 -56 48 l-45 1 22 18 c13 11 54 24 93 31 38 6 73 16
76 21 3 6 11 4 17 -5 7 -8 21 -16 32 -18z m1118 18 c3 -7 18 -16 34 -19 53
-12 58 -21 33 -57 l-22 -32 -33 32 c-45 44 -67 37 -84 -27 -19 -73 -1 -130 51
-158 20 -11 40 -16 44 -12 4 4 -2 27 -13 50 l-21 43 45 13 c25 6 48 9 52 5 3
-3 5 -28 4 -55 -1 -27 2 -49 8 -49 5 0 3 -12 -5 -28 -17 -32 -56 -70 -56 -54
0 7 -17 12 -42 12 -58 0 -109 27 -131 70 -23 45 -18 135 11 184 22 37 20 46
-12 46 -27 1 81 49 110 50 12 0 24 -6 27 -14z m216 -143 c1 -2 21 -3 46 -3
l45 0 0 39 c0 22 -5 52 -10 67 -13 34 -6 41 45 46 l40 3 8 -124 c6 -108 5
-126 -8 -134 -9 -4 -27 -26 -40 -48 -14 -21 -29 -39 -34 -39 -6 0 -7 24 -4 54
l6 54 -42 13 c-23 7 -43 10 -46 8 -2 -3 0 -22 5 -44 17 -72 14 -82 -27 -88
-21 -4 -41 -3 -45 1 -11 11 -27 165 -18 177 5 6 14 39 20 75 6 35 17 74 23 85
9 17 13 8 23 -60 7 -44 13 -81 13 -82z m697 123 c14 -20 20 -76 8 -76 -4 0
-29 14 -56 30 -74 46 -90 44 -100 -9 -4 -24 -5 -48 -1 -54 3 -5 32 -7 64 -5
l59 4 0 -38 c0 -21 -1 -38 -2 -38 -2 0 -27 7 -55 14 -45 12 -53 12 -53 0 0
-21 31 -94 40 -94 5 0 29 9 55 20 l47 20 -7 -27 c-11 -47 -40 -68 -93 -67 -51
0 -145 24 -124 31 20 7 16 152 -5 175 -15 17 -15 18 4 18 15 0 22 10 30 45 9
38 8 45 -4 45 -11 0 -9 5 6 18 31 25 166 16 187 -12z m285 3 c44 -23 41 -80
-8 -131 l-25 -27 41 -39 c22 -21 41 -46 41 -55 0 -8 -18 -29 -39 -46 l-39 -31
-11 32 c-19 54 -59 108 -81 108 -25 0 -25 -6 1 -75 12 -31 19 -58 17 -59 -1
-1 -24 -1 -50 2 -45 4 -46 5 -57 47 -6 24 -11 53 -11 65 0 11 -7 23 -15 26
-14 6 -14 8 -1 18 21 15 34 126 15 126 -7 0 1 15 19 33 l32 33 76 -8 c41 -4
84 -13 95 -19z m-1805 -13 c14 -20 20 -76 8 -76 -4 0 -29 14 -56 30 -74 46
-90 44 -100 -9 -4 -24 -5 -48 -1 -54 3 -5 32 -7 64 -5 l59 4 0 -38 c0 -21 -1
-38 -2 -38 -2 0 -27 7 -55 14 -45 12 -53 12 -53 0 0 -21 31 -94 40 -94 5 0 29
9 55 20 l47 20 -7 -27 c-11 -47 -40 -68 -93 -67 -51 0 -145 24 -124 31 20 7
16 152 -5 175 -15 17 -15 18 4 18 15 0 22 10 30 45 9 38 8 45 -4 45 -11 0 -9
5 6 18 31 25 166 16 187 -12z m417 -39 c-5 -63 4 -156 23 -234 5 -18 0 -23
-32 -32 -22 -6 -42 -7 -47 -2 -15 15 -20 127 -8 196 12 69 44 145 60 145 5 0
7 -32 4 -73z m1663 38 c20 -48 19 -69 -3 -60 -34 14 -110 17 -132 6 -31 -17
-26 -31 12 -31 71 -1 167 -73 167 -127 0 -50 -74 -103 -145 -103 -51 0 -105
25 -105 48 0 25 20 82 29 82 4 0 22 -15 40 -34 34 -35 87 -64 98 -53 3 3 2 23
-2 44 -10 53 -68 108 -123 118 -23 4 -42 12 -42 19 0 20 67 92 102 109 18 9
46 17 61 17 23 0 31 -7 43 -35z m-2329 -425 c79 -265 266 -479 526 -600 141
-66 228 -84 407 -84 130 0 169 3 240 23 266 71 484 241 619 482 33 60 90 212
91 242 0 17 34 25 44 9 11 -18 -27 -131 -79 -237 -232 -475 -788 -694 -1283
-505 -289 111 -526 367 -613 663 -22 73 -22 74 -3 100 15 20 20 22 22 9 2 -10
15 -55 29 -102z m1697 1 c-47 -247 -254 -440 -532 -496 -99 -20 -127 -15 -52
10 91 30 252 110 306 154 95 75 147 187 160 339 l6 77 63 -9 62 -10 -13 -65z
m-2205 -547 c145 -250 261 -457 259 -458 -1 -2 -47 -28 -100 -59 l-96 -55
-258 445 c-141 245 -257 452 -258 459 -1 11 162 119 185 123 3 1 123 -204 268
-455z m3264 389 c42 -25 77 -47 77 -50 0 -13 -253 -443 -258 -440 -53 28 -192
111 -192 114 0 3 57 104 126 224 119 206 127 218 148 207 11 -6 56 -31 99 -55z
m-3618 -284 c70 -121 125 -222 123 -223 -1 -2 -47 -28 -100 -59 l-96 -55 -127
220 c-84 144 -124 223 -118 229 12 12 175 108 184 109 4 0 64 -99 134 -221z
m3815 170 c50 -28 93 -55 96 -60 3 -5 -52 -107 -122 -228 l-127 -220 -41 25
c-23 13 -67 39 -99 57 -35 19 -55 37 -52 45 8 22 246 432 251 432 2 0 45 -23
94 -51z m-3899 -533 c142 -247 257 -451 254 -454 -2 -3 -46 -29 -97 -58 -72
-42 -95 -51 -104 -41 -15 17 -514 885 -514 894 0 12 173 112 188 110 7 -1 130
-204 273 -451z m4126 402 c51 -29 93 -56 93 -60 0 -9 -230 -410 -245 -426 -10
-11 -29 -4 -104 38 -50 29 -93 56 -96 60 -4 6 56 114 207 373 21 37 42 67 45
67 4 0 48 -24 100 -52z m-717 -209 c50 -28 93 -55 96 -60 2 -4 -52 -107 -122
-228 l-127 -220 -41 25 c-23 13 -67 39 -99 57 -35 19 -55 37 -52 45 8 22 246
432 251 432 2 0 45 -23 94 -51z m-2090 -122 c0 -66 -63 -107 -165 -107 -52 0
-54 21 -6 93 35 54 38 63 23 68 -13 6 -10 10 18 22 59 25 63 24 97 -9 24 -25
33 -42 33 -67z m1233 63 c44 -20 60 -33 63 -55 1 -6 14 -28 28 -50 l27 -39
-23 -13 c-36 -19 -44 -16 -61 28 l-16 40 -44 -25 c-24 -14 -48 -26 -53 -26
-11 0 -54 83 -54 104 0 13 20 26 41 26 5 0 16 -18 25 -40 17 -42 30 -46 48
-18 7 12 3 25 -18 52 -31 41 -26 44 37 16z m-2202 -232 c67 -117 124 -216 126
-220 2 -4 -40 -33 -93 -64 -80 -47 -98 -54 -109 -43 -16 18 -245 416 -245 426
0 9 170 111 187 112 6 1 66 -95 134 -211z m3291 157 c49 -27 88 -53 88 -57 0
-8 -237 -419 -248 -430 -9 -9 -185 83 -197 102 -3 4 34 75 81 156 48 82 104
180 126 217 22 38 45 67 51 65 7 -2 51 -25 99 -53z m-1212 -42 c24 -54 34
-106 25 -133 -6 -17 -12 -9 -40 50 -19 38 -36 70 -39 70 -2 0 0 -17 6 -37 7
-27 7 -53 -2 -90 -9 -44 -15 -53 -33 -53 -19 0 -63 19 -46 20 4 0 -10 17 -31
38 -47 47 -60 100 -35 138 14 21 22 25 46 20 15 -3 31 -1 35 5 4 7 16 2 32
-13 l26 -23 -17 27 c-16 25 -15 27 6 41 20 14 23 14 35 -1 8 -9 22 -36 32 -59z
m-940 -9 c0 -21 3 -23 19 -14 11 5 38 10 60 10 40 0 41 -1 41 -36 0 -36 0 -36
-25 -20 -27 18 -85 22 -85 6 0 -5 6 -10 14 -10 23 0 73 -47 84 -79 9 -25 7
-32 -14 -52 -30 -29 -88 -30 -127 -4 -32 20 -33 32 -7 65 l19 25 9 -25 c5 -14
19 -34 31 -45 18 -15 24 -17 31 -6 18 29 -21 104 -61 116 -10 3 -16 12 -13 19
2 6 -10 32 -27 56 l-31 43 -19 -24 c-27 -35 -24 -46 16 -59 39 -13 39 -13 24
-42 -11 -20 -11 -20 -34 2 -28 27 -45 19 -45 -21 0 -27 3 -29 35 -29 37 0 43
-8 23 -28 -20 -20 -65 -14 -97 13 l-30 26 24 51 c13 28 21 58 18 67 -4 9 -2
13 2 8 10 -9 45 21 45 39 0 22 24 22 73 -3 37 -18 47 -28 47 -49z m287 -56
c10 -12 18 -35 18 -58 0 -48 -34 -87 -106 -121 -71 -33 -73 -29 -44 125 4 22
2 27 -10 22 -25 -9 -17 14 15 44 27 26 33 27 69 18 22 -6 48 -19 58 -30z m404
16 c37 -18 42 -39 14 -52 -33 -15 -57 -55 -53 -88 5 -43 26 -40 47 6 l19 42
16 -23 c9 -13 16 -31 16 -40 0 -24 -63 -51 -113 -47 -42 3 -42 3 -40 40 3 53
30 98 64 111 33 13 37 22 13 31 -21 8 -53 -1 -76 -22 -17 -14 -18 -13 -18 21
0 26 5 37 18 40 22 5 60 -2 93 -19z m1712 -54 c31 -17 57 -35 57 -39 0 -7
-238 -422 -248 -433 -9 -9 -204 101 -200 111 2 5 59 105 128 224 l124 216 41
-23 c22 -13 66 -38 98 -56z m-1949 50 c19 -7 26 -17 26 -36 0 -14 -3 -24 -7
-22 -5 2 -25 12 -46 23 -33 17 -39 17 -48 5 -5 -8 -8 -24 -7 -35 3 -16 10 -20
41 -19 33 1 37 -1 37 -23 0 -23 -3 -25 -35 -19 -38 8 -42 2 -23 -39 8 -18 16
-24 27 -19 38 16 51 16 51 1 0 -34 -50 -49 -111 -34 -25 6 -26 11 -26 61 0 30
-4 59 -7 65 -4 6 0 18 8 27 9 8 16 26 16 38 0 12 2 25 5 27 9 10 73 9 99 -1z"/>
<path d="M2563 3108 c6 -63 31 -113 58 -113 10 0 15 17 17 61 2 49 -1 65 -18
87 -12 15 -31 27 -42 27 -19 0 -20 -4 -15 -62z"/>
<path d="M3071 2975 c-17 -20 -31 -40 -31 -44 0 -5 15 -22 32 -37 l33 -27 13
48 c14 46 10 95 -7 95 -5 0 -23 -16 -40 -35z"/>
<path d="M3470 1885 c0 -64 11 -69 59 -29 34 28 41 68 15 78 -9 3 -29 6 -45 6
-29 0 -29 -1 -29 -55z"/>
<path d="M1815 784 c-29 -66 -30 -74 -10 -74 26 0 62 29 75 61 11 25 10 32 -5
49 -10 11 -22 20 -27 20 -4 0 -19 -25 -33 -56z"/>
<path d="M2912 738 c-25 -25 -8 -138 22 -138 26 0 36 73 16 124 -11 29 -20 32
-38 14z"/>
<path d="M2300 590 c0 -38 4 -70 10 -70 22 0 50 45 50 80 0 40 -14 60 -42 60
-16 0 -18 -9 -18 -70z"/>
</g>
</svg>
